<svg viewBox="0 0 480 31.312" width="480pt" height="31.312pt" xmlns="http://www.w3.org/2000/svg" xmlns:xlink="http://www.w3.org/1999/xlink" xmlns:h5="http://www.w3.org/1999/xhtml"><path fill="#ffffff" fill-rule="nonzero" d="M 0 0v 31.312h 480v -31.312Z "/><g transform="matrix(1 0 0 -1 223.507533333 9.992)"><use xlink:href="#g636250FCE68A5E5F67CFB40EC070AA64" x="0" y="0" fill="#000000" fill-rule="nonzero"/></g><g transform="matrix(1 0 0 -1 230.371533333 12.956)"><use xlink:href="#g79B8246893A2BF314A7B9070142783C2" x="0" y="0" fill="#000000" fill-rule="nonzero"/></g><g transform="matrix(1 0 0 -1 238.4898 9.992)"><use xlink:href="#g1474CC577A0BC95724C438CA14860364" x="0" y="0" fill="#000000" fill-rule="nonzero"/></g><g transform="matrix(1 0 0 -1 250.492466667 9.992)"><use xlink:href="#gA74B3EC2F2942D72B136156AB35462DE" x="0" y="0" fill="#000000" fill-rule="nonzero"/></g><g transform="matrix(1 0 0 -1 223.999533333 26.348)"><use xlink:href="#gA1F575568E20CB7D10828B843F393032" x="0" y="0" fill="#000000" fill-rule="nonzero"/></g><g transform="matrix(1 0 0 -1 229.879533333 29.312)"><use xlink:href="#g7C24B6B826C9F8B9B1A046EFDA7F24" x="0" y="0" fill="#000000" fill-rule="nonzero"/></g><g transform="matrix(1 0 0 -1 237.9978 26.348)"><use xlink:href="#gC943DEFCBA101BB708DC1123947AB898" x="0" y="0" fill="#000000" fill-rule="nonzero"/></g><g transform="matrix(1 0 0 -1 250.000466667 26.348)"><use xlink:href="#g8E3683C1F4B7E53DCDF587FF19F393AC" x="0" y="0" fill="#000000" fill-rule="nonzero"/></g><path fill="none" stroke="#000000" stroke-width="0.576" stroke-linecap="butt" stroke-linejoin="miter" stroke-miterlimit="4" transform="translate(223.507533333 15.116)" d="M 0 0h 32.984933333"/><defs><symbol id="g636250FCE68A5E5F67CFB40EC070AA64" overflow="visible"><path d="M 0 0m 6.324 4.476c 0 0.552 -0.54 0.828 -1.14 0.828c -0.516 0 -0.924 -0.276 -1.236 -0.828c -0.252 0.552 -0.672 0.828 -1.284 0.828c -0.588 0 -1.068 -0.276 -1.452 -0.816c -0.324 -0.468 -0.492 -0.816 -0.492 -1.044c 0 -0.108 0.06 -0.168 0.18 -0.168c 0.108 0 0.18 0.06 0.204 0.168c 0.228 0.696 0.732 1.512 1.536 1.512c 0.396 0 0.588 -0.252 0.588 -0.744c 0 -0.252 -0.216 -1.188 -0.636 -2.796c -0.204 -0.804 -0.564 -1.2 -1.08 -1.2c -0.168 0 -0.324 0.036 -0.456 0.096c 0.312 0.12 0.468 0.336 0.468 0.648c 0 0.312 -0.156 0.468 -0.48 0.468c -0.396 0 -0.696 -0.336 -0.696 -0.732c 0 -0.552 0.564 -0.828 1.152 -0.828c 0.504 0 0.912 0.276 1.236 0.828c 0.228 -0.552 0.66 -0.828 1.284 -0.828c 0.576 0 1.056 0.276 1.44 0.816c 0.324 0.468 0.492 0.816 0.492 1.044c 0 0.108 -0.06 0.168 -0.18 0.168c -0.108 0 -0.168 -0.06 -0.204 -0.168c -0.204 -0.684 -0.744 -1.512 -1.524 -1.512c -0.396 0 -0.6 0.24 -0.6 0.732c 0 0.156 0.06 0.492 0.192 1.032l 0.408 1.62c 0.228 0.9 0.6 1.356 1.128 1.356c 0.168 0 0.324 -0.036 0.456 -0.096c -0.324 -0.108 -0.48 -0.324 -0.48 -0.648c 0 -0.312 0.168 -0.468 0.492 -0.468c 0.384 0 0.684 0.348 0.684 0.732Z "/></symbol><symbol id="g79B8246893A2BF314A7B9070142783C2" overflow="visible"><path d="M 0 0m 4.3344 2.6796c 0 0.9492 -0.168 1.6716 -0.4956 2.1672c -0.2688 0.42 -0.8064 0.7308 -1.4532 0.7308c -0.2688 0 -0.5124 -0.042 -0.7224 -0.1344c -0.924 -0.3864 -1.2264 -1.4616 -1.2264 -2.7636c 0 -0.2856 0.0168 -0.5544 0.042 -0.8148c 0.1428 -1.1004 0.6552 -2.0328 1.9068 -2.0328c 0.2688 0 0.5124 0.042 0.7224 0.1344c 0.924 0.378 1.2264 1.428 1.2264 2.7132Z m -0.9576 1.8648c 0.0924 -0.3108 0.1428 -0.8904 0.1428 -1.7556c 0 -0.8232 -0.0336 -1.4028 -0.1092 -1.7472c -0.1008 -0.4956 -0.4536 -0.9072 -1.0248 -0.9072c -0.21 0 -0.42 0.0672 -0.6132 0.21c -0.2604 0.1932 -0.42 0.5712 -0.4872 1.1508c -0.0252 0.1932 -0.0336 0.6216 -0.0336 1.2936c 0 0.8148 0.042 1.3776 0.126 1.68c 0.1428 0.5376 0.4788 0.8064 1.008 0.8064c 0.504 0 0.8736 -0.3276 0.9912 -0.7308Z "/></symbol><symbol id="g1474CC577A0BC95724C438CA14860364" overflow="visible"><path d="M 0 0m 8.376 3.288h -3.42v 3.42c 0 0.192 -0.096 0.288 -0.288 0.288c -0.192 0 -0.288 -0.096 -0.288 -0.288v -3.42h -3.42c -0.192 0 -0.288 -0.096 -0.288 -0.288c 0 -0.192 0.096 -0.288 0.288 -0.288h 3.42v -3.42c 0 -0.192 0.096 -0.288 0.288 -0.288c 0.192 0 0.288 0.096 0.288 0.288v 3.42h 3.42c 0.192 0 0.288 0.096 0.288 0.288c 0 0.156 -0.132 0.288 -0.288 0.288Z "/></symbol><symbol id="gA74B3EC2F2942D72B136156AB35462DE" overflow="visible"><path d="M 0 0m 3.228 7.992c -0.492 -0.504 -1.212 -0.756 -2.16 -0.756v -0.468c 0.624 0 1.14 0.096 1.536 0.288v -6.072c 0 -0.216 -0.048 -0.36 -0.156 -0.42c -0.108 -0.06 -0.408 -0.096 -0.888 -0.096h -0.42v -0.468c 0.3 0.024 0.948 0.036 1.944 0.036c 0.996 0 1.644 -0.012 1.944 -0.036v 0.468h -0.42c -0.492 0 -0.792 0.036 -0.888 0.096c -0.096 0.06 -0.156 0.204 -0.156 0.42v 6.648c 0 0.288 -0.024 0.36 -0.336 0.36Z "/></symbol><symbol id="gA1F575568E20CB7D10828B843F393032" overflow="visible"><path d="M 0 0m 1.956 5.304c -0.54 0 -0.96 -0.3 -1.26 -0.9c -0.228 -0.468 -0.348 -0.792 -0.348 -0.972c 0 -0.108 0.06 -0.168 0.192 -0.168c 0.168 0 0.18 0.072 0.228 0.252c 0.276 0.948 0.66 1.428 1.152 1.428c 0.156 0 0.24 -0.108 0.24 -0.324c 0 -0.192 -0.06 -0.468 -0.192 -0.816c -0.456 -1.236 -0.684 -2.064 -0.684 -2.508c 0 -0.912 0.564 -1.452 1.488 -1.452c 0.396 0 0.768 0.144 1.104 0.432c -0.42 -1.584 -1.08 -2.376 -1.98 -2.376c -0.408 0 -0.684 0.132 -0.828 0.396c 0.48 0.024 0.72 0.252 0.72 0.684c 0 0.3 -0.156 0.456 -0.48 0.456c -0.444 0 -0.708 -0.372 -0.708 -0.816c 0 -0.66 0.6 -1.08 1.296 -1.08c 1.38 0 2.508 1.272 2.808 2.448l 1.128 4.536c 0.036 0.132 0.048 0.228 0.048 0.288c 0 0.24 -0.132 0.36 -0.384 0.36c -0.192 0 -0.348 -0.096 -0.456 -0.276c -0.072 -0.252 -0.132 -0.468 -0.168 -0.648l -0.768 -3.084c -0.12 -0.432 -0.756 -0.972 -1.296 -0.972c -0.456 0 -0.684 0.3 -0.684 0.912c 0 0.504 0.204 1.272 0.6 2.304c 0.156 0.42 0.24 0.708 0.24 0.876c 0 0.588 -0.42 1.02 -1.008 1.02Z "/></symbol><symbol id="g7C24B6B826C9F8B9B1A046EFDA7F24" overflow="visible"><path d="M 0 0m 0.9996 3.5616c 0.2688 0 0.4704 0.2016 0.4704 0.4704c 0 0.3024 -0.1596 0.462 -0.4704 0.4704c 0.1848 0.3948 0.6048 0.714 1.1508 0.714c 0.7392 0 1.2264 -0.5544 1.2264 -1.2936c 0 -0.4032 -0.1428 -0.7896 -0.4368 -1.1676c -0.1428 -0.1932 -0.252 -0.3276 -0.3276 -0.4032l -1.9908 -1.974c -0.1092 -0.1008 -0.0924 -0.126 -0.0924 -0.378h 3.4608l 0.2604 1.5792h -0.3528c -0.0588 -0.4452 -0.126 -0.7056 -0.2016 -0.7644c -0.042 -0.0252 -0.3024 -0.042 -0.798 -0.042h -1.428c 0.5628 0.4956 1.0836 0.9408 1.5792 1.3356c 0.378 0.294 0.6468 0.5544 0.8148 0.7812c 0.252 0.3276 0.378 0.672 0.378 1.0332c 0 0.5208 -0.2016 0.9324 -0.6132 1.2348c -0.3612 0.2772 -0.8148 0.42 -1.3524 0.42c -0.462 0 -0.8568 -0.1344 -1.2012 -0.4032c -0.3612 -0.294 -0.546 -0.6636 -0.546 -1.1172c 0 -0.2856 0.21 -0.4956 0.4704 -0.4956Z "/></symbol><symbol id="gC943DEFCBA101BB708DC1123947AB898" overflow="visible"><path d="M 0 0m 8.376 3.24h -7.416c -0.192 0 -0.288 -0.084 -0.288 -0.24c 0 -0.156 0.096 -0.24 0.288 -0.24h 7.416c 0.192 0 0.288 0.084 0.288 0.24c 0 0.144 -0.144 0.24 -0.288 0.24Z "/></symbol><symbol id="g8E3683C1F4B7E53DCDF587FF19F393AC" overflow="visible"><path d="M 0 0m 3.636 4.236c 0.792 0.3 1.536 1.056 1.536 2.076c 0 0.516 -0.252 0.936 -0.744 1.26c -0.432 0.276 -0.924 0.42 -1.476 0.42c -0.54 0 -1.008 -0.144 -1.428 -0.42c -0.468 -0.312 -0.708 -0.72 -0.708 -1.236c 0 -0.396 0.264 -0.672 0.648 -0.672c 0.384 0 0.648 0.276 0.648 0.66c 0 0.396 -0.228 0.612 -0.684 0.636c 0.312 0.42 0.804 0.636 1.476 0.636c 0.72 0 1.08 -0.42 1.08 -1.272c 0 -0.504 -0.096 -0.924 -0.276 -1.272c -0.324 -0.576 -0.768 -0.684 -1.512 -0.684c -0.144 -0.024 -0.216 -0.084 -0.216 -0.192c 0 -0.18 0.084 -0.18 0.324 -0.18h 0.516c 0.9 0 1.356 -0.636 1.356 -1.92c 0 -1.02 -0.372 -1.908 -1.284 -1.908c -0.78 0 -1.356 0.264 -1.704 0.792c 0.42 -0.012 0.732 0.3 0.732 0.708c 0 0.408 -0.3 0.708 -0.708 0.708c -0.468 0 -0.708 -0.24 -0.708 -0.732c 0 -0.588 0.264 -1.056 0.792 -1.428c 0.468 -0.324 1.02 -0.48 1.632 -0.48c 0.684 0 1.272 0.228 1.788 0.672c 0.516 0.444 0.768 0.996 0.768 1.668c 0 1.128 -0.888 1.908 -1.848 2.16Z "/></symbol></defs></svg>